<?xml version="1.0" standalone="no"?>
<!DOCTYPE svg PUBLIC "-//W3C//DTD SVG 20010904//EN"
 "http://www.w3.org/TR/2001/REC-SVG-20010904/DTD/svg10.dtd">
<svg version="1.0" xmlns="http://www.w3.org/2000/svg"
 width="208.000000pt" height="208.000000pt" viewBox="0 0 208.000000 208.000000"
 preserveAspectRatio="xMidYMid meet">
<style>
	path { fill: #000000; }
	@media (prefers-color-scheme: dark) {
		path { fill: #42DDD4; }
	}
</style>
<metadata>
Created by Mohammad Sadeghi 2020. All Rights Reserved.
</metadata>
<g transform="translate(0.000000,208.000000) scale(0.100000,-0.100000)"
fill="#000000" stroke="none">
<path d="M815 2040 c-83 -10 -212 -49 -313 -96 -84 -38 -181 -128 -199 -184
-6 -19 -21 -62 -33 -94 -47 -128 -46 -348 2 -545 14 -59 18 -98 14 -135 -8
-64 3 -121 51 -251 23 -64 48 -113 68 -135 18 -19 38 -53 45 -75 7 -22 26 -67
42 -99 41 -81 46 -146 20 -232 -29 -92 -53 -129 -109 -164 l-47 -30 420 0 419
0 37 25 c25 17 40 37 47 61 13 47 57 104 81 104 30 0 43 -36 37 -100 -4 -31
-9 -64 -13 -73 -5 -15 2 -17 50 -17 63 0 61 -4 70 111 4 58 2 70 -20 102 -14
21 -28 37 -32 37 -4 0 -20 11 -36 25 -26 22 -30 23 -56 10 -15 -8 -36 -12 -47
-9 -14 4 -25 -2 -37 -20 -20 -32 -89 -68 -130 -69 -31 -1 -50 8 -120 52 -29
19 -36 29 -34 49 3 25 12 32 78 62 8 4 22 19 30 34 14 25 14 28 -10 46 -45 35
-5 67 87 69 57 1 94 -31 102 -88 7 -47 24 -60 29 -21 4 35 -25 141 -43 159
-12 13 -21 12 -66 -2 -43 -14 -55 -15 -78 -4 -14 7 -24 20 -22 28 2 8 3 30 2
49 -1 27 5 41 24 58 14 12 25 26 25 32 0 13 -43 13 -56 0 -18 -18 -42 0 -64
44 -18 38 -20 61 -20 213 0 94 3 178 6 187 17 45 63 -7 75 -87 13 -77 50 -110
132 -115 56 -4 66 -1 93 21 17 14 45 27 64 29 18 2 35 8 37 15 2 6 -12 29 -31
51 -20 22 -36 46 -36 55 0 19 32 31 60 22 37 -12 21 14 -26 41 -57 33 -169 43
-274 25 -37 -7 -80 -13 -96 -13 -32 -1 -141 63 -151 88 -3 8 4 45 15 82 11 37
23 79 27 94 7 35 59 71 145 99 54 18 90 21 218 22 150 0 154 0 178 -24 28 -28
44 -104 44 -206 0 -39 8 -83 20 -115 32 -81 51 -190 59 -336 5 -81 12 -137 20
-145 23 -23 32 14 26 101 -6 71 -5 82 9 82 11 0 16 -9 16 -28 0 -38 9 -46 31
-26 30 27 35 81 11 113 -19 26 -19 32 -7 68 20 58 42 182 55 313 11 105 10
124 -10 219 -26 127 -42 158 -122 241 -76 77 -207 148 -333 181 -90 24 -328
34 -450 19z"/>
</g>
</svg>
